HIERARCHY
ROOT root
{
	OFFSET	0	13.1	24.9
	CHANNELS 6  Xposition Yposition Zposition Xrotation Yrotation Zrotation
	JOINT spine_1
	{
		OFFSET	0	9.99999	0
		CHANNELS 3  Xrotation Yrotation Zrotation
		JOINT spine_2
		{
			OFFSET	0	112	-10
			CHANNELS 3  Xrotation Yrotation Zrotation
			JOINT spine_3
			{
				OFFSET	0	206.5	19.3
				CHANNELS 3  Xrotation Yrotation Zrotation
				JOINT spine_4
				{
					OFFSET	0	110.4	14.6
					CHANNELS 3  Xrotation Yrotation Zrotation
					JOINT neck_1
					{
						OFFSET	0	71.8	-50.3
						CHANNELS 3  Xrotation Yrotation Zrotation
						JOINT neck_2
						{
							OFFSET	0	86.2	-25.8
							CHANNELS 3  Xrotation Yrotation Zrotation
							JOINT head_ee
							{
								OFFSET	0	179.8	-8.7
								CHANNELS 3  Xrotation Yrotation Zrotation
								End Site
								{
									OFFSET	1	0	0
								}
							}
						}
					}
					JOINT left_clavicle
					{
						OFFSET	-43.2	22.4	-70.8
						CHANNELS 3  Xrotation Yrotation Zrotation
						JOINT left_shoulder
						{
							OFFSET	-93.9	-5.79999	48.7
							CHANNELS 3  Xrotation Yrotation Zrotation
							JOINT left_elbow
							{
								OFFSET	-291.4	-30.8	15.2
								CHANNELS 3  Xrotation Yrotation Zrotation
								JOINT left_lowarm_twist
								{
									OFFSET	-110.7	-3.89999	13.6
									CHANNELS 3  Xrotation Yrotation Zrotation
									JOINT left_hand
									{
										OFFSET	-110.7	-3.89999	13.6
										CHANNELS 3  Xrotation Yrotation Zrotation
										JOINT left_ee
										{
											OFFSET	-80.8	-5.10001	12.1
											CHANNELS 3  Xrotation Yrotation Zrotation
											End Site
											{
												OFFSET	1	0	0
											}
										}
									}
								}
							}
						}
					}
					JOINT right_clavicle
					{
						OFFSET	43.2	22.4	-70.8
						CHANNELS 3  Xrotation Yrotation Zrotation
						JOINT right_shoulder
						{
							OFFSET	93.9	-5.79999	48.7
							CHANNELS 3  Xrotation Yrotation Zrotation
							JOINT right_elbow
							{
								OFFSET	291.4	-30.8	15.2
								CHANNELS 3  Xrotation Yrotation Zrotation
								JOINT right_lowarm_twist
								{
									OFFSET	110.7	-3.89999	13.6
									CHANNELS 3  Xrotation Yrotation Zrotation
									JOINT right_hand
									{
										OFFSET	110.7	-3.89999	13.6
										CHANNELS 3  Xrotation Yrotation Zrotation
										JOINT right_ee
										{
											OFFSET	80.8	-5.10001	12.1
											CHANNELS 3  Xrotation Yrotation Zrotation
											End Site
											{
												OFFSET	1	0	0
											}
										}
									}
								}
							}
						}
					}
				}
			}
		}
	}
	JOINT left_hip
	{
		OFFSET	-82.8	-127.5	0.300001
		CHANNELS 3  Xrotation Yrotation Zrotation
		JOINT left_knee
		{
			OFFSET	-28.2	-396.7	2.2
			CHANNELS 3  Xrotation Yrotation Zrotation
			JOINT left_ankle
			{
				OFFSET	-11.7	-411.3	35.4
				CHANNELS 3  Xrotation Yrotation Zrotation
				JOINT left_toes
				{
					OFFSET	0	-60	-88.6
					CHANNELS 3  Xrotation Yrotation Zrotation
					JOINT left_foot_ee
					{
						OFFSET	-22.5	-16.5	-42.2
						CHANNELS 3  Xrotation Yrotation Zrotation
						End Site
						{
							OFFSET	1	0	0
						}
					}
				}
			}
		}
	}
	JOINT right_hip
	{
		OFFSET	82.8	-127.5	0.300001
		CHANNELS 3  Xrotation Yrotation Zrotation
		JOINT right_knee
		{
			OFFSET	28.2	-396.7	2.2
			CHANNELS 3  Xrotation Yrotation Zrotation
			JOINT right_ankle
			{
				OFFSET	11.7	-411.3	35.4
				CHANNELS 3  Xrotation Yrotation Zrotation
				JOINT right_toes
				{
					OFFSET	0	-60	-88.6
					CHANNELS 3  Xrotation Yrotation Zrotation
					JOINT right_foot_ee
					{
						OFFSET	22.5	-16.5	-42.2
						CHANNELS 3  Xrotation Yrotation Zrotation
						End Site
						{
							OFFSET	1	0	0
						}
					}
				}
			}
		}
	}
}
MOTION
Frames: 5
Frame Time: 0.02
1194.85 750.403 -1551.9 -173.968 69.5514 170.226 2.70004 0.241619 1.80632 2.70185 0.126208 1.81803 2.70545 -0.173318 1.81415 2.70088 0.115319 1.81875 -9.78455 -1.69508 1.43623 -9.78291 -4.16355 0.987197 -0.0 0.0 -0.0 -1.04914 -5.478 -2.77038 -34.7674 -46.1451 55.8776 0.642284 -17.6495 0.0997162 -20.3256 -1.14076 2.32157 1.31998 11.3425 13.196 -0.0 0.0 -0.0 9.18949 -13.5573 -16.9922 -16.2827 6.86522 -53.3514 2.90897 55.2304 -1.52199 32.4753 0.0167621 4.09344 3.73328 12.3442 -20.2958 0.0 0.0 0.0 10.2215 2.14019 -2.58738 -17.119 0.318811 2.59797 -1.12571 -28.2929 0.206149 14.3299 -0.0 -0.0 -0.0 0.0 -0.0 7.14132 -42.14 -0.242405 -3.17761 -0.117728 -0.47339 5.80874 15.4258 0.912975 1.62039 -0.0 -0.0 0.0 0.0 0.0 
1187.91 750.769 -1547.49 -174.682 69.0541 170.673 2.57435 0.235534 1.83657 2.57622 0.118211 1.84783 2.57968 -0.19014 1.84182 2.57496 0.103077 1.84874 -10.124 -1.91439 0.0133007 -10.1282 -3.614 -0.466749 -0.0 0.0 -0.0 -0.928765 -5.12066 -2.47961 -34.3715 -46.1308 55.9447 0.644778 -17.7138 0.100474 -20.2425 -1.13446 2.313 1.23289 10.0669 12.1607 -0.0 0.0 -0.0 9.01392 -13.8233 -16.6553 -16.4258 6.5774 -53.1747 2.95229 55.6257 -1.55766 31.8987 -0.00377667 4.02267 3.6335 11.1484 -20.1589 0.0 0.0 0.0 10.6522 3.22856 -2.15079 -12.1772 0.306821 1.84009 -5.6881 -28.1346 1.0512 13.6529 -0.0 -0.0 -0.0 0.0 -0.0 6.74009 -40.0401 -0.143846 -3.40869 -0.125262 -0.508054 6.40578 16.2845 1.01144 1.88301 -0.0 -0.0 0.0 0.0 0.0 
1187.39 759.077 -1544.32 -175.271 68.3123 171.08 2.41566 0.239074 1.75927 2.41737 0.12666 1.77091 2.42104 -0.173924 1.76689 2.4167 0.107262 1.77219 -9.64853 -2.17941 -2.04663 -9.6394 -2.70106 -2.52972 -0.0 0.0 -0.0 -0.814567 -4.71804 -2.19663 -33.9038 -46.0832 55.9633 0.647974 -17.7961 0.101448 -20.169 -1.1289 2.3054 1.13726 8.25483 10.8558 -0.0 0.0 -0.0 8.90756 -14.0991 -16.4404 -16.4097 6.21404 -53.0631 3.01543 56.188 -1.60995 31.1023 -0.0309722 3.92459 3.47094 9.44293 -19.7974 0.0 0.0 0.0 10.9134 3.99978 -1.59352 -5.58844 0.189419 0.836405 -11.8666 -28.0165 2.21285 12.8047 -0.0 -0.0 -0.0 0.0 -0.0 6.61026 -37.0081 0.172066 -3.73182 -0.135561 -0.556575 6.85453 17.5443 1.09169 2.07694 -0.0 -0.0 0.0 0.0 0.0 
1181.3 762.872 -1547.14 -174.888 68.3791 171.162 2.33846 0.23359 1.56397 2.33981 0.13361 1.57566 2.34332 -0.136257 1.57544 2.33988 0.114232 1.57719 -8.84275 -2.64975 -5.03353 -8.77302 -1.46579 -5.56103 -0.0 0.0 -0.0 -0.717671 -4.25394 -1.94172 -33.6403 -45.9087 55.9096 0.650369 -17.8577 0.102181 -20.0581 -1.12053 2.29393 1.01042 5.68057 9.02853 -0.0 0.0 -0.0 8.89114 -14.1243 -16.4092 -16.4148 5.89311 -53.1104 3.10295 56.9411 -1.68299 30.001 -0.0663251 3.78837 3.24198 7.00201 -19.2671 0.0 0.0 0.0 11.7264 5.10952 -0.708051 3.87773 -0.178998 -0.567936 -20.5521 -27.8664 3.84766 11.5924 -0.0 -0.0 -0.0 0.0 -0.0 5.32381 -32.7713 0.604164 -4.19271 -0.149777 -0.625879 7.15762 19.3275 1.1565 2.3425 -0.0 -0.0 0.0 0.0 0.0 
1173.19 763.913 -1547.51 -175.031 68.5073 171.449 2.17352 0.277224 1.53941 2.17482 0.178718 1.55393 2.17959 -0.0925556 1.56143 2.17622 0.155174 1.55645 -9.05351 -2.70328 -5.49087 -8.97005 -1.27025 -6.02275 -0.0 0.0 -0.0 -0.501936 -4.15619 -1.49752 -33.7418 -45.5186 55.5491 0.651235 -17.8799 0.102447 -20.0089 -1.11682 2.28883 0.977565 5.43898 8.71616 -0.0 0.0 -0.0 8.83899 -13.6503 -16.3681 -16.3844 6.15265 -53.0661 3.05833 56.5609 -1.64567 30.0265 -0.0655357 3.79153 3.20443 6.63682 -19.1607 0.0 0.0 0.0 12.3147 4.94557 0.0672147 4.74419 -0.224233 -0.693135 -20.8663 -28.3245 3.92999 11.7696 -0.0 -0.0 -0.0 0.0 -0.0 4.2931 -32.5606 -0.856015 -4.82541 -0.168383 -0.721196 7.66196 19.8131 1.24114 2.54197 -0.0 -0.0 0.0 0.0 0.0 
